<?xml version="1.0" encoding="utf-8"?>
<!-- Generator: Adobe Illustrator 17.0.0, SVG Export Plug-In . SVG Version: 6.00 Build 0)  -->
<!DOCTYPE svg PUBLIC "-//W3C//DTD SVG 1.1//EN" "http://www.w3.org/Graphics/SVG/1.1/DTD/svg11.dtd">
<svg version="1.1" id="Capa_1" xmlns="http://www.w3.org/2000/svg" xmlns:xlink="http://www.w3.org/1999/xlink" x="0px" y="0px"
	 width="95.333px" height="125.387px" viewBox="0 0 95.333 125.387" enable-background="new 0 0 95.333 125.387"
	 xml:space="preserve">
<g>
	<path fill="#A42551" d="M95.333,47.667c0,32.955-47.667,77.72-47.667,77.72S0,81.289,0,47.667C0,21.341,21.341,0,47.667,0
		S95.333,21.341,95.333,47.667z"/>
	<path fill="#FFFFFF" d="M47.667,11.752c-20.717,0-37.57,16.854-37.57,37.57c0,16.627,14.434,36.151,26.542,49.603
		c0.01,0.011,0.023,0.014,0.033,0.025c0.116,0.122,0.253,0.225,0.41,0.304c0.027,0.013,0.052,0.026,0.08,0.037
		c0.032,0.014,0.061,0.032,0.094,0.044c0.09,0.032,0.18,0.033,0.271,0.047c0.063,0.01,0.122,0.03,0.186,0.032
		c0.014,0,0.028,0.007,0.042,0.007c0.162,0,0.32-0.029,0.471-0.08c0.031-0.01,0.057-0.031,0.087-0.043
		c0.138-0.056,0.265-0.13,0.38-0.225c0.02-0.016,0.045-0.02,0.064-0.038c0.025-0.023,0.035-0.054,0.058-0.078
		c0.09-0.091,0.164-0.194,0.229-0.309c0.029-0.052,0.061-0.099,0.083-0.154c0.011-0.027,0.031-0.047,0.041-0.075l10.674-30.233
		h6.938c5.068,0,10.429-3.943,12.205-8.978c0.935-2.652,0.698-5.266-0.648-7.169c-1.281-1.81-3.387-2.807-5.931-2.807h-7.992
		c-0.013,0-0.026,0.004-0.039,0.004c-0.059,0.002-0.117,0.009-0.175,0.018c-0.041,0.006-0.082,0.01-0.122,0.019
		c-0.052,0.012-0.102,0.03-0.152,0.047c-0.042,0.015-0.085,0.028-0.125,0.046c-0.046,0.021-0.089,0.047-0.133,0.072
		c-0.039,0.023-0.079,0.044-0.117,0.07c-0.042,0.029-0.079,0.064-0.118,0.097c-0.034,0.03-0.069,0.058-0.1,0.091
		c-0.034,0.035-0.063,0.074-0.093,0.113c-0.031,0.039-0.062,0.077-0.088,0.119c-0.023,0.036-0.042,0.075-0.062,0.114
		c-0.027,0.051-0.053,0.102-0.073,0.156c-0.005,0.012-0.012,0.023-0.017,0.036l-5.291,14.985H29.327l4.58-12.986h10.061
		c0.828,0,1.5-0.672,1.5-1.5s-0.672-1.5-1.5-1.5h-9.003l4.58-12.986h20.454c0.828,0,1.5-0.672,1.5-1.5s-0.672-1.5-1.5-1.5H38.483
		c-0.015,0-0.029,0.004-0.044,0.004c-0.052,0.002-0.102,0.009-0.153,0.015c-0.049,0.006-0.098,0.012-0.145,0.023
		c-0.043,0.01-0.084,0.025-0.126,0.039c-0.051,0.017-0.101,0.033-0.15,0.055c-0.04,0.018-0.076,0.041-0.114,0.062
		c-0.045,0.026-0.091,0.05-0.133,0.08c-0.039,0.028-0.074,0.06-0.111,0.092c-0.035,0.031-0.072,0.06-0.104,0.094
		c-0.035,0.036-0.065,0.077-0.096,0.117c-0.029,0.037-0.058,0.073-0.084,0.112c-0.026,0.04-0.047,0.084-0.069,0.127
		c-0.024,0.046-0.047,0.092-0.066,0.14c-0.006,0.014-0.014,0.027-0.02,0.041l-11.19,31.73c-0.043,0.122-0.064,0.245-0.074,0.368
		c-0.031,0.12-0.052,0.243-0.052,0.373c0,0.828,0.672,1.5,1.5,1.5H46.65l-9.463,26.803c-9.708-11.08-24.091-30.125-24.091-45.7
		c0-19.063,15.508-34.57,34.57-34.57s34.57,15.508,34.57,34.57c0,21.68-28.757,51.019-34.579,56.734
		c-1.108-1.069-3.037-2.973-5.419-5.489c-0.571-0.602-1.521-0.628-2.121-0.059c-0.602,0.57-0.628,1.52-0.059,2.121
		c3.855,4.073,6.479,6.506,6.589,6.607c0.288,0.266,0.653,0.398,1.019,0.398c0.369,0,0.738-0.136,1.027-0.406
		c1.491-1.401,36.543-34.61,36.543-59.907C85.237,28.605,68.384,11.752,47.667,11.752z M65.887,53.772
		c0.789,1.115,0.884,2.691,0.268,4.438c-1.333,3.781-5.627,6.976-9.375,6.976h-5.879l4.573-12.953h6.932
		C63.949,52.233,65.185,52.78,65.887,53.772z"/>
</g>
</svg>
