<svg xmlns="http://www.w3.org/2000/svg" width="100" height="100" viewBox="0 0 100 100"><path d="M50 95c-.408 0-.816-.125-1.165-.374l-6.041-4.328-7.184 2.033a1.998 1.998 0 0 1-2.195-.795l-4.167-6.092-7.451-.509a2.001 2.001 0 0 1-1.803-1.505l-1.797-7.114-6.813-2.983a2.002 2.002 0 0 1-1.187-2.045l.781-7.281-5.356-5.089a2.002 2.002 0 0 1-.415-2.339L8.471 50l-3.263-6.578a2 2 0 0 1 .415-2.339l5.356-5.089-.781-7.281a1.999 1.999 0 0 1 1.187-2.045l6.813-2.983 1.797-7.114a1.998 1.998 0 0 1 1.803-1.505l7.451-.509 4.167-6.092a2.001 2.001 0 0 1 2.195-.795l7.184 2.033 6.041-4.328a1.999 1.999 0 0 1 2.329 0l6.041 4.328L64.39 7.67a1.998 1.998 0 0 1 2.195.795l4.167 6.092 7.451.509a2.001 2.001 0 0 1 1.803 1.505l1.797 7.114 6.813 2.983a2.002 2.002 0 0 1 1.187 2.045l-.781 7.281 5.356 5.089c.636.604.804 1.553.415 2.339L91.529 50l3.263 6.578a2 2 0 0 1-.415 2.339l-5.356 5.089.781 7.281a1.999 1.999 0 0 1-1.187 2.045l-6.813 2.983-1.797 7.114a1.998 1.998 0 0 1-1.803 1.505l-7.451.509-4.167 6.092a1.997 1.997 0 0 1-2.195.795l-7.184-2.033-6.041 4.328c-.348.25-.756.375-1.164.375zm-6.824-8.888c.413 0 .821.128 1.165.374L50 90.54l5.659-4.054a2.003 2.003 0 0 1 1.709-.298l6.727 1.903 3.903-5.705a2.003 2.003 0 0 1 1.515-.866l6.97-.477 1.682-6.657a1.997 1.997 0 0 1 1.137-1.342l6.368-2.788-.73-6.806c-.066-.62.16-1.234.611-1.664l5.003-4.753-3.048-6.145a2.004 2.004 0 0 1 0-1.777l3.048-6.145-5.003-4.753a1.998 1.998 0 0 1-.611-1.664l.73-6.806-6.368-2.788a2.002 2.002 0 0 1-1.137-1.342l-1.682-6.657-6.97-.477a2.003 2.003 0 0 1-1.515-.866l-3.903-5.705-6.727 1.903a2.003 2.003 0 0 1-1.709-.298L50 9.46l-5.659 4.054a1.991 1.991 0 0 1-1.709.298l-6.727-1.903-3.903 5.705a2.003 2.003 0 0 1-1.515.866l-6.97.477-1.682 6.657a1.997 1.997 0 0 1-1.137 1.342l-6.368 2.788.73 6.806c.066.62-.16 1.234-.611 1.664l-5.003 4.753 3.048 6.145c.277.56.277 1.217 0 1.777l-3.048 6.145 5.003 4.753c.452.429.678 1.044.611 1.664l-.73 6.806 6.368 2.788c.566.248.985.743 1.137 1.342l1.682 6.657 6.97.477a2.003 2.003 0 0 1 1.515.866l3.903 5.705 6.727-1.903c.179-.052.362-.077.544-.077z"/><path d="M62.671 66.333c-1.821 1.104-4.911 2.207-8.443 2.207-5.021 0-9.547-1.986-12.471-5.683-1.765-2.042-2.98-4.801-3.476-8.222h-3.532v-3.366h3.09v-.883c0-.662.055-1.379.111-1.987h-3.201v-3.421h3.697c.662-3.366 2.152-6.235 4.139-8.332 2.98-3.311 7.008-5.187 11.919-5.187 3.311 0 6.07.828 7.89 1.711l-1.379 5.132c-1.435-.773-3.698-1.49-6.18-1.49-2.759 0-5.187.993-7.008 3.035-1.159 1.214-1.987 3.035-2.428 5.132h14.457V48.4h-15.12c-.11.607-.11 1.269-.11 1.931v.938h15.23v3.366H45.234c.385 2.373 1.214 4.139 2.373 5.408 1.876 2.042 4.524 2.98 7.394 2.98 2.703 0 5.242-.938 6.511-1.655l1.159 4.965z"/></svg>