<svg xmlns="http://www.w3.org/2000/svg" width="100" height="100" viewBox="0 0 100 100"><path d="M41.963 35.631v7.108h-8.325v9.64h8.325v24.734h9.953V52.379h8.303l1.243-9.64h-9.546v-6.155c0-2.791.778-4.693 4.78-4.693l5.1-.003v-8.621c-.881-.118-3.908-.38-7.437-.38-7.36.001-12.396 4.494-12.396 12.744z"/><path d="M49.955 5c-12.02.012-23.316 4.705-31.807 13.212S4.988 38.025 5 50.045C5.025 74.833 25.211 95 49.999 95h.046c12.02-.012 23.316-4.705 31.807-13.212S95.012 61.975 95 49.955C94.975 25.167 74.789 5 49.955 5zm29.066 73.962C71.285 86.714 60.993 90.989 50.042 91L50 93v-2C27.415 91 9.023 72.626 9 50.042 8.989 39.09 13.243 28.79 20.979 21.038 28.715 13.286 39.007 9.011 50.001 9 72.585 9 90.977 27.374 91 49.958c.011 10.952-4.243 21.252-11.979 29.004z"/></svg>