<?xml version="1.0" encoding="utf-8"?>
<!-- Generator: Adobe Illustrator 17.0.0, SVG Export Plug-In . SVG Version: 6.00 Build 0)  -->
<!DOCTYPE svg PUBLIC "-//W3C//DTD SVG 1.1//EN" "http://www.w3.org/Graphics/SVG/1.1/DTD/svg11.dtd">
<svg version="1.1" id="Layer_1" xmlns="http://www.w3.org/2000/svg" xmlns:xlink="http://www.w3.org/1999/xlink" x="0px" y="0px"
	 width="100px" height="100px" viewBox="0 0 100 100" enable-background="new 0 0 100 100" xml:space="preserve">
<path d="M88.094,14.812H71.239V7c0-1.104-0.896-2-2-2s-2,0.896-2,2v7.812H32.761V7c0-1.104-0.896-2-2-2s-2,0.896-2,2v7.812H11.906
	c-1.104,0-2,0.896-2,2V93c0,1.104,0.896,2,2,2h76.188c1.104,0,2-0.896,2-2V16.812C90.094,15.708,89.198,14.812,88.094,14.812z
	 M28.761,18.812v7.812c0,1.104,0.896,2,2,2s2-0.896,2-2v-7.812h34.479v7.812c0,1.104,0.896,2,2,2s2-0.896,2-2v-7.812h14.854v16.605
	H13.906V18.812H28.761z M13.906,91V39.417h72.188V91H13.906z"/>
</svg>
