<?xml version="1.0" encoding="utf-8"?>
<!-- Generator: Adobe Illustrator 17.0.0, SVG Export Plug-In . SVG Version: 6.00 Build 0)  -->
<!DOCTYPE svg PUBLIC "-//W3C//DTD SVG 1.1//EN" "http://www.w3.org/Graphics/SVG/1.1/DTD/svg11.dtd">
<svg version="1.1" id="Layer_1" xmlns="http://www.w3.org/2000/svg" xmlns:xlink="http://www.w3.org/1999/xlink" x="0px" y="0px"
	 width="100px" height="100px" viewBox="0 0 100 100" enable-background="new 0 0 100 100" xml:space="preserve">
<g>
	<path d="M81.17,54.336c-1.104,0-2,0.896-2,2V91H9.177V21.006h34.419c1.104,0,2-0.896,2-2s-0.896-2-2-2H7.177c-1.104,0-2,0.896-2,2
		V93c0,1.104,0.896,2,2,2H81.17c1.104,0,2-0.896,2-2V56.336C83.17,55.231,82.274,54.336,81.17,54.336z"/>
	<path d="M94.784,6.608c-0.012-0.059-0.034-0.114-0.051-0.171c-0.02-0.068-0.036-0.136-0.063-0.202
		c-0.028-0.067-0.066-0.128-0.101-0.192c-0.028-0.051-0.05-0.104-0.083-0.153c-0.147-0.219-0.335-0.408-0.555-0.554
		c-0.047-0.032-0.099-0.053-0.148-0.081c-0.065-0.036-0.127-0.075-0.196-0.103c-0.065-0.027-0.133-0.042-0.2-0.062
		c-0.058-0.017-0.113-0.039-0.173-0.051C93.086,5.014,92.955,5,92.823,5H50.149c-1.104,0-2,0.896-2,2s0.896,2,2,2h37.846
		L46.921,50.074c-0.781,0.781-0.781,2.047,0,2.828c0.391,0.391,0.902,0.586,1.414,0.586s1.023-0.195,1.414-0.586l41.074-41.074
		v37.846c0,1.104,0.896,2,2,2s2-0.896,2-2V7C94.823,6.869,94.809,6.738,94.784,6.608z"/>
</g>
</svg>
