<?xml version="1.0" encoding="utf-8"?>
<!-- Generator: Adobe Illustrator 17.0.0, SVG Export Plug-In . SVG Version: 6.00 Build 0)  -->
<!DOCTYPE svg PUBLIC "-//W3C//DTD SVG 1.1//EN" "http://www.w3.org/Graphics/SVG/1.1/DTD/svg11.dtd">
<svg version="1.1" id="Layer_1" xmlns="http://www.w3.org/2000/svg" xmlns:xlink="http://www.w3.org/1999/xlink" x="0px" y="0px"
	 width="100px" height="100px" viewBox="0 0 100 100" enable-background="new 0 0 100 100" xml:space="preserve">
<path d="M94.414,91.586L72.491,69.663c6.201-6.87,9.983-15.964,9.983-25.926C82.474,22.377,65.096,5,43.737,5S5,22.377,5,43.737
	s17.377,38.737,38.737,38.737c9.962,0,19.055-3.782,25.926-9.983l21.923,21.923C91.976,94.805,92.488,95,93,95
	s1.024-0.195,1.414-0.586C95.195,93.633,95.195,92.367,94.414,91.586z M9,43.737C9,24.583,24.583,9,43.737,9
	s34.737,15.583,34.737,34.737S62.891,78.474,43.737,78.474S9,62.891,9,43.737z"/>
</svg>
