<?xml version="1.0" encoding="utf-8"?>
<!-- Generator: Adobe Illustrator 17.0.0, SVG Export Plug-In . SVG Version: 6.00 Build 0)  -->
<!DOCTYPE svg PUBLIC "-//W3C//DTD SVG 1.1//EN" "http://www.w3.org/Graphics/SVG/1.1/DTD/svg11.dtd">
<svg version="1.1" id="Layer_1" xmlns="http://www.w3.org/2000/svg" xmlns:xlink="http://www.w3.org/1999/xlink" x="0px" y="0px"
	 width="100px" height="100px" viewBox="0 0 100 100" enable-background="new 0 0 100 100" xml:space="preserve">
<g>
	<path d="M33.655,27.857c-2.865,0-5.175,2.318-5.175,5.168c0,2.853,2.31,5.17,5.175,5.17c2.854,0,5.169-2.317,5.169-5.17
		C38.824,30.175,36.509,27.857,33.655,27.857z"/>
	<rect x="29.188" y="42.116" width="8.928" height="28.682"/>
	<path d="M60.825,41.403c-4.34,0-7.251,2.376-8.44,4.633h-0.121v-3.92h-8.55v28.682h8.909V56.607c0-3.739,0.707-7.362,5.35-7.362
		c4.571,0,4.636,4.279,4.636,7.608v13.945h8.912V55.066C71.52,47.341,69.85,41.403,60.825,41.403z"/>
	<path d="M49.955,5c-12.02,0.012-23.316,4.705-31.807,13.212S4.988,38.025,5,50.045C5.025,74.833,25.211,95,49.999,95
		c0.001,0,0.046,0,0.046,0c12.02-0.012,23.316-4.705,31.807-13.212S95.012,61.975,95,49.955C94.975,25.167,74.789,5,49.955,5z
		 M79.021,78.962C71.285,86.714,60.993,90.989,50.042,91l-0.042,2v-2C27.415,91,9.023,72.626,9,50.042
		C8.989,39.09,13.243,28.79,20.979,21.038C28.715,13.286,39.007,9.011,50.001,9C72.585,9,90.977,27.374,91,49.958
		C91.011,60.91,86.757,71.21,79.021,78.962z"/>
</g>
</svg>
