<?xml version="1.0" encoding="utf-8"?>
<!-- Generator: Adobe Illustrator 17.0.0, SVG Export Plug-In . SVG Version: 6.00 Build 0)  -->
<!DOCTYPE svg PUBLIC "-//W3C//DTD SVG 1.1//EN" "http://www.w3.org/Graphics/SVG/1.1/DTD/svg11.dtd">
<svg version="1.1" id="Layer_1" xmlns="http://www.w3.org/2000/svg" xmlns:xlink="http://www.w3.org/1999/xlink" x="0px" y="0px"
	 width="100px" height="100px" viewBox="0 0 100 100" enable-background="new 0 0 100 100" xml:space="preserve">
<g>
	<path d="M50,95c-0.487,0-0.975-0.177-1.358-0.532c-1.361-1.259-33.335-31.112-33.335-54.775C15.307,20.563,30.87,5,50,5
		s34.693,15.563,34.693,34.693c0,23.202-31.963,53.487-33.324,54.765C50.984,94.819,50.492,95,50,95z M50,9
		C33.076,9,19.307,22.769,19.307,39.693c0,19.295,24.56,44.533,30.684,50.525c6.111-6.06,30.703-31.624,30.703-50.525
		C80.693,22.769,66.924,9,50,9z"/>
</g>
</svg>
