<?xml version="1.0" encoding="utf-8"?>
<!-- Generator: Adobe Illustrator 17.0.0, SVG Export Plug-In . SVG Version: 6.00 Build 0)  -->
<!DOCTYPE svg PUBLIC "-//W3C//DTD SVG 1.1//EN" "http://www.w3.org/Graphics/SVG/1.1/DTD/svg11.dtd">
<svg version="1.1" id="Layer_1" xmlns="http://www.w3.org/2000/svg" xmlns:xlink="http://www.w3.org/1999/xlink" x="0px" y="0px"
	 width="100px" height="100px" viewBox="0 0 100 100" enable-background="new 0 0 100 100" xml:space="preserve">
<g>
	<g>
		<path d="M50,95c-0.408,0-0.816-0.125-1.165-0.374l-6.041-4.328l-7.184,2.033c-0.825,0.236-1.709-0.086-2.195-0.795l-4.167-6.092
			l-7.451-0.509c-0.863-0.059-1.591-0.667-1.803-1.505l-1.797-7.114l-6.813-2.983c-0.799-0.35-1.279-1.178-1.187-2.045l0.781-7.281
			l-5.356-5.089c-0.636-0.604-0.804-1.553-0.415-2.339L8.471,50l-3.263-6.578c-0.39-0.786-0.222-1.734,0.415-2.339l5.356-5.089
			l-0.781-7.281c-0.093-0.868,0.387-1.695,1.187-2.045l6.813-2.983l1.797-7.114c0.212-0.839,0.939-1.447,1.803-1.505l7.451-0.509
			l4.167-6.092c0.486-0.709,1.371-1.029,2.195-0.795l7.184,2.033l6.041-4.328c0.696-0.499,1.633-0.499,2.329,0l6.041,4.328
			l7.184-2.033c0.826-0.234,1.71,0.085,2.195,0.795l4.167,6.092l7.451,0.509c0.863,0.059,1.591,0.667,1.803,1.505l1.797,7.114
			l6.813,2.983c0.799,0.35,1.279,1.178,1.187,2.045l-0.781,7.281l5.356,5.089c0.636,0.604,0.804,1.553,0.415,2.339L91.529,50
			l3.263,6.578c0.39,0.786,0.222,1.734-0.415,2.339l-5.356,5.089l0.781,7.281c0.093,0.868-0.387,1.695-1.187,2.045l-6.813,2.983
			l-1.797,7.114c-0.212,0.839-0.939,1.447-1.803,1.505l-7.451,0.509l-4.167,6.092c-0.485,0.709-1.37,1.031-2.195,0.795l-7.184-2.033
			l-6.041,4.328C50.816,94.875,50.408,95,50,95z M43.176,86.112c0.413,0,0.821,0.128,1.165,0.374L50,90.54l5.659-4.054
			c0.495-0.354,1.124-0.463,1.709-0.298l6.727,1.903l3.903-5.705c0.346-0.505,0.904-0.824,1.515-0.866l6.97-0.477l1.682-6.657
			c0.151-0.599,0.571-1.095,1.137-1.342l6.368-2.788l-0.73-6.806c-0.066-0.62,0.16-1.234,0.611-1.664l5.003-4.753l-3.048-6.145
			c-0.277-0.56-0.277-1.217,0-1.777l3.048-6.145l-5.003-4.753c-0.452-0.429-0.678-1.044-0.611-1.664l0.73-6.806l-6.368-2.788
			c-0.566-0.248-0.985-0.743-1.137-1.342l-1.682-6.657l-6.97-0.477c-0.611-0.042-1.169-0.361-1.515-0.866l-3.903-5.705l-6.727,1.903
			c-0.585,0.165-1.215,0.056-1.709-0.298L50,9.46l-5.659,4.054c-0.494,0.355-1.122,0.465-1.709,0.298l-6.727-1.903l-3.903,5.705
			c-0.346,0.505-0.904,0.824-1.515,0.866l-6.97,0.477l-1.682,6.657c-0.151,0.599-0.571,1.095-1.137,1.342l-6.368,2.788l0.73,6.806
			c0.066,0.62-0.16,1.234-0.611,1.664l-5.003,4.753l3.048,6.145c0.277,0.56,0.277,1.217,0,1.777l-3.048,6.145l5.003,4.753
			c0.452,0.429,0.678,1.044,0.611,1.664l-0.73,6.806l6.368,2.788c0.566,0.248,0.985,0.743,1.137,1.342l1.682,6.657l6.97,0.477
			c0.611,0.042,1.169,0.361,1.515,0.866l3.903,5.705l6.727-1.903C42.811,86.137,42.994,86.112,43.176,86.112z"/>
	</g>
	<g>
		<path d="M62.671,66.333c-1.821,1.104-4.911,2.207-8.443,2.207c-5.021,0-9.547-1.986-12.471-5.683
			c-1.765-2.042-2.98-4.801-3.476-8.222h-3.532v-3.366h3.09c0-0.276,0-0.607,0-0.883c0-0.662,0.055-1.379,0.111-1.987h-3.201v-3.421
			h3.697c0.662-3.366,2.152-6.235,4.139-8.332c2.98-3.311,7.008-5.187,11.919-5.187c3.311,0,6.07,0.828,7.89,1.711l-1.379,5.132
			c-1.435-0.773-3.698-1.49-6.18-1.49c-2.759,0-5.187,0.993-7.008,3.035c-1.159,1.214-1.987,3.035-2.428,5.132h14.457V48.4h-15.12
			c-0.11,0.607-0.11,1.269-0.11,1.931c0,0.331,0,0.607,0,0.938h15.23v3.366H45.234c0.385,2.373,1.214,4.139,2.373,5.408
			c1.876,2.042,4.524,2.98,7.394,2.98c2.703,0,5.242-0.938,6.511-1.655L62.671,66.333z"/>
	</g>
</g>
</svg>
