<?xml version="1.0" encoding="utf-8"?>
<!-- Generator: Adobe Illustrator 17.0.0, SVG Export Plug-In . SVG Version: 6.00 Build 0)  -->
<!DOCTYPE svg PUBLIC "-//W3C//DTD SVG 1.1//EN" "http://www.w3.org/Graphics/SVG/1.1/DTD/svg11.dtd">
<svg version="1.1" id="Layer_1" xmlns="http://www.w3.org/2000/svg" xmlns:xlink="http://www.w3.org/1999/xlink" x="0px" y="0px"
	 width="100px" height="100px" viewBox="0 0 100 100" enable-background="new 0 0 100 100" xml:space="preserve">
<path d="M50,5C30.87,5,15.307,20.563,15.307,39.693c0,15.273,13.172,33.112,24.222,45.386c0.02,0.023,0.045,0.039,0.066,0.06
	c0.051,0.052,0.105,0.1,0.162,0.147c0.049,0.04,0.099,0.077,0.151,0.112c0.054,0.036,0.109,0.068,0.167,0.099
	c0.063,0.034,0.126,0.064,0.192,0.09c0.029,0.012,0.054,0.029,0.083,0.039c0.034,0.012,0.069,0.017,0.104,0.027
	c0.048,0.014,0.095,0.027,0.143,0.037c0.078,0.017,0.155,0.027,0.233,0.035c0.041,0.004,0.082,0.009,0.123,0.01
	c0.021,0.001,0.042,0.005,0.063,0.005c0.025,0,0.048-0.01,0.073-0.011c0.16-0.006,0.319-0.029,0.474-0.073
	c0.024-0.007,0.049-0.01,0.073-0.018c0.165-0.054,0.322-0.134,0.472-0.232c0.037-0.024,0.071-0.051,0.107-0.078
	c0.046-0.035,0.095-0.063,0.139-0.102c0.077-0.07,0.141-0.148,0.205-0.226c0.016-0.019,0.035-0.035,0.05-0.055
	c0.115-0.152,0.199-0.317,0.266-0.49c0.007-0.018,0.021-0.032,0.027-0.05l9.524-26.977h5.835c4.848,0,9.972-3.762,11.666-8.564
	c0.918-2.603,0.674-5.183-0.668-7.081c-1.284-1.814-3.379-2.814-5.898-2.814h-7.244c-0.018,0-0.035,0.005-0.053,0.005
	C55.986,38.98,55.911,38.99,55.835,39c-0.057,0.008-0.115,0.014-0.17,0.027c-0.065,0.015-0.127,0.037-0.19,0.059
	c-0.061,0.021-0.123,0.04-0.182,0.066c-0.056,0.025-0.108,0.057-0.161,0.088c-0.058,0.033-0.116,0.064-0.171,0.103
	c-0.051,0.036-0.097,0.078-0.145,0.119c-0.049,0.043-0.1,0.083-0.145,0.131c-0.043,0.045-0.08,0.095-0.119,0.145
	c-0.042,0.053-0.084,0.105-0.121,0.162c-0.031,0.049-0.057,0.102-0.084,0.154c-0.035,0.066-0.068,0.132-0.096,0.203
	c-0.007,0.017-0.017,0.032-0.023,0.05l-4.645,13.155H34.283l3.699-10.489h8.666c1.104,0,2-0.896,2-2s-0.896-2-2-2h-7.255
	l3.699-10.49h18.086c1.104,0,2-0.896,2-2s-0.896-2-2-2H41.676c-0.02,0-0.038,0.005-0.057,0.006
	c-0.072,0.002-0.142,0.012-0.213,0.021c-0.062,0.008-0.125,0.015-0.185,0.03c-0.06,0.014-0.117,0.035-0.176,0.055
	c-0.066,0.022-0.132,0.043-0.194,0.071c-0.053,0.024-0.102,0.054-0.153,0.083c-0.06,0.034-0.121,0.067-0.178,0.107
	c-0.05,0.035-0.095,0.077-0.142,0.117c-0.05,0.043-0.101,0.084-0.146,0.132c-0.043,0.045-0.081,0.096-0.12,0.145
	c-0.041,0.052-0.083,0.104-0.12,0.16c-0.032,0.05-0.058,0.104-0.085,0.157c-0.034,0.065-0.067,0.13-0.094,0.2
	c-0.007,0.018-0.018,0.033-0.024,0.051l-10.142,28.76c-0.05,0.143-0.08,0.288-0.097,0.433c-0.034,0.146-0.056,0.296-0.056,0.451
	c0,1.104,0.896,2,2,2h16.678l-7.91,22.404c-8.71-10.071-20.956-26.636-20.956-40.172C19.307,22.769,33.076,9,50,9
	s30.693,13.769,30.693,30.693c0,18.904-24.598,44.472-30.705,50.526c-0.793-0.774-1.895-1.869-3.205-3.225
	c-0.768-0.795-2.035-0.816-2.828-0.049c-0.794,0.768-0.816,2.034-0.049,2.828c2.818,2.917,4.659,4.623,4.736,4.694
	C49.025,94.823,49.513,95,50,95c0.492,0,0.984-0.181,1.369-0.542c1.361-1.278,33.324-31.563,33.324-54.765
	C84.693,20.563,69.13,5,50,5z M65.992,44.097c0.583,0.824,0.642,2.078,0.161,3.44c-1.127,3.195-4.742,5.895-7.893,5.895h-4.423
	l3.693-10.459h5.829C64.197,42.972,65.334,43.167,65.992,44.097z"/>
</svg>
