<?xml version="1.0" encoding="utf-8"?>
<!-- Generator: Adobe Illustrator 17.0.0, SVG Export Plug-In . SVG Version: 6.00 Build 0)  -->
<!DOCTYPE svg PUBLIC "-//W3C//DTD SVG 1.1//EN" "http://www.w3.org/Graphics/SVG/1.1/DTD/svg11.dtd">
<svg version="1.1" id="Layer_1" xmlns="http://www.w3.org/2000/svg" xmlns:xlink="http://www.w3.org/1999/xlink" x="0px" y="0px"
	 width="100px" height="100px" viewBox="0 0 100 100" enable-background="new 0 0 100 100" xml:space="preserve">
<g>
	<path d="M69.927,33.492c-1.67,0.992-3.522,1.713-5.494,2.101c-1.58-1.684-3.83-2.734-6.319-2.734c-4.78,0-8.655,3.876-8.655,8.655
		c0,0.68,0.077,1.339,0.223,1.972c-7.192-0.36-13.569-3.805-17.839-9.043c-0.744,1.28-1.171,2.766-1.171,4.353
		c0,3.002,1.527,5.653,3.849,7.203c-1.418-0.044-2.752-0.435-3.919-1.083v0.109c0,4.193,2.984,7.691,6.942,8.487
		c-0.725,0.197-1.492,0.305-2.281,0.305c-0.556,0-1.1-0.056-1.628-0.157c1.101,3.439,4.297,5.94,8.084,6.012
		c-2.96,2.321-6.692,3.705-10.75,3.705c-0.697,0-1.386-0.043-2.063-0.121c3.83,2.453,8.379,3.887,13.269,3.887
		c15.918,0,24.624-13.186,24.624-24.624c0-0.374-0.01-0.747-0.024-1.121c1.688-1.218,3.154-2.742,4.316-4.479
		c-1.552,0.689-3.221,1.154-4.971,1.363C67.909,37.208,69.283,35.513,69.927,33.492z"/>
	<path d="M49.955,5c-12.02,0.012-23.316,4.705-31.807,13.212S4.988,38.025,5,50.045C5.025,74.833,25.211,95,49.999,95
		c0.001,0,0.046,0,0.046,0c12.02-0.012,23.316-4.705,31.807-13.212S95.012,61.975,95,49.955C94.975,25.167,74.789,5,49.955,5z
		 M79.021,78.962C71.285,86.714,60.993,90.989,50.042,91l-0.042,2v-2C27.415,91,9.023,72.626,9,50.042
		C8.989,39.09,13.243,28.79,20.979,21.038C28.715,13.286,39.007,9.011,50.001,9C72.585,9,90.977,27.374,91,49.958
		C91.011,60.91,86.757,71.21,79.021,78.962z"/>
</g>
</svg>
