<?xml version="1.0" encoding="utf-8"?>
<!-- Generator: Adobe Illustrator 17.0.0, SVG Export Plug-In . SVG Version: 6.00 Build 0)  -->
<!DOCTYPE svg PUBLIC "-//W3C//DTD SVG 1.1//EN" "http://www.w3.org/Graphics/SVG/1.1/DTD/svg11.dtd">
<svg version="1.1" id="Layer_1" xmlns="http://www.w3.org/2000/svg" xmlns:xlink="http://www.w3.org/1999/xlink" x="0px" y="0px"
	 width="100px" height="100px" viewBox="0 0 100 100" enable-background="new 0 0 100 100" xml:space="preserve">
<path d="M52.828,50L94.414,8.414c0.781-0.781,0.781-2.047,0-2.828c-0.781-0.781-2.047-0.781-2.828,0L50,47.172L8.414,5.586
	c-0.781-0.781-2.047-0.781-2.828,0c-0.781,0.781-0.781,2.047,0,2.828L47.172,50L5.586,91.586c-0.781,0.781-0.781,2.047,0,2.828
	C5.977,94.805,6.488,95,7,95s1.023-0.195,1.414-0.586L50,52.828l41.586,41.586C91.977,94.805,92.488,95,93,95
	s1.023-0.195,1.414-0.586c0.781-0.781,0.781-2.047,0-2.828L52.828,50z"/>
</svg>
