<svg xmlns="http://www.w3.org/2000/svg" width="100" height="100" viewBox="0 0 100 100"><path d="M81.17 54.336a2 2 0 0 0-2 2V91H9.177V21.006h34.419a2 2 0 0 0 0-4H7.177a2 2 0 0 0-2 2V93a2 2 0 0 0 2 2H81.17a2 2 0 0 0 2-2V56.336a2 2 0 0 0-2-2z"/><path d="M94.784 6.608c-.012-.059-.034-.114-.051-.171-.02-.068-.036-.136-.063-.202-.028-.067-.066-.128-.101-.192-.028-.051-.05-.104-.083-.153a2.005 2.005 0 0 0-.555-.554c-.047-.032-.099-.053-.148-.081-.065-.036-.127-.075-.196-.103-.065-.027-.133-.042-.2-.062-.058-.017-.113-.039-.173-.051A2.041 2.041 0 0 0 92.823 5H50.149a2 2 0 0 0 0 4h37.846L46.921 50.074a2 2 0 1 0 2.828 2.828l41.074-41.074v37.846a2 2 0 0 0 4 0V7c0-.131-.014-.262-.039-.392z"/></svg>