<svg xmlns="http://www.w3.org/2000/svg" width="100" height="100" viewBox="0 0 100 100"><path d="M33.655 27.857a5.17 5.17 0 1 0 0 10.338 5.171 5.171 0 0 0 5.169-5.17 5.172 5.172 0 0 0-5.169-5.168zM29.188 42.116h8.928v28.682h-8.928zM60.825 41.403c-4.34 0-7.251 2.376-8.44 4.633h-.121v-3.92h-8.55v28.682h8.909V56.607c0-3.739.707-7.362 5.35-7.362 4.571 0 4.636 4.279 4.636 7.608v13.945h8.912V55.066c-.001-7.725-1.671-13.663-10.696-13.663z"/><path d="M49.955 5c-12.02.012-23.316 4.705-31.807 13.212S4.988 38.025 5 50.045C5.025 74.833 25.211 95 49.999 95h.046c12.02-.012 23.316-4.705 31.807-13.212S95.012 61.975 95 49.955C94.975 25.167 74.789 5 49.955 5zm29.066 73.962C71.285 86.714 60.993 90.989 50.042 91L50 93v-2C27.415 91 9.023 72.626 9 50.042 8.989 39.09 13.243 28.79 20.979 21.038 28.715 13.286 39.007 9.011 50.001 9 72.585 9 90.977 27.374 91 49.958c.011 10.952-4.243 21.252-11.979 29.004z"/></svg>