<svg xmlns="http://www.w3.org/2000/svg" width="100" height="100" viewBox="0 0 100 100"><path d="M50 5C30.87 5 15.307 20.563 15.307 39.693c0 15.273 13.172 33.112 24.222 45.386.02.023.045.039.066.06a2.064 2.064 0 0 0 .48.358c.063.034.126.064.192.09.029.012.054.029.083.039.034.012.069.017.104.027a1.879 1.879 0 0 0 .376.072c.041.004.082.009.123.01.021.001.042.005.063.005.025 0 .048-.01.073-.011.16-.006.319-.029.474-.073.024-.007.049-.01.073-.018.165-.054.322-.134.472-.232.037-.024.071-.051.107-.078.046-.035.095-.063.139-.102.077-.07.141-.148.205-.226.016-.019.035-.035.05-.055.115-.152.199-.317.266-.49.007-.018.021-.032.027-.05l9.524-26.977h5.835c4.848 0 9.972-3.762 11.666-8.564.918-2.603.674-5.183-.668-7.081-1.284-1.814-3.379-2.814-5.898-2.814h-7.244c-.018 0-.035.005-.053.005-.078.006-.153.016-.229.026-.057.008-.115.014-.17.027-.065.015-.127.037-.19.059-.061.021-.123.04-.182.066-.056.025-.108.057-.161.088-.058.033-.116.064-.171.103-.051.036-.097.078-.145.119-.049.043-.1.083-.145.131-.043.045-.08.095-.119.145-.042.053-.084.105-.121.162-.031.049-.057.102-.084.154a1.987 1.987 0 0 0-.096.203c-.007.017-.017.032-.023.05l-4.645 13.155h-15.3l3.699-10.489h8.666a2 2 0 0 0 0-4h-7.255l3.699-10.49h18.086a2 2 0 0 0 0-4H41.676c-.02 0-.038.005-.057.006-.072.002-.142.012-.213.021-.062.008-.125.015-.185.03-.06.014-.117.035-.176.055-.066.022-.132.043-.194.071-.053.024-.102.054-.153.083-.06.034-.121.067-.178.107-.05.035-.095.077-.142.117-.05.043-.101.084-.146.132-.043.045-.081.096-.12.145-.041.052-.083.104-.12.16-.032.05-.058.104-.085.157-.034.065-.067.13-.094.2-.007.018-.018.033-.024.051l-10.142 28.76c-.05.143-.08.288-.097.433a1.982 1.982 0 0 0-.056.451 2 2 0 0 0 2 2h16.678l-7.91 22.404c-8.71-10.071-20.956-26.636-20.956-40.172C19.307 22.769 33.076 9 50 9s30.693 13.769 30.693 30.693c0 18.904-24.598 44.472-30.705 50.526a155.656 155.656 0 0 1-3.205-3.225 2 2 0 1 0-2.877 2.779c2.818 2.917 4.659 4.623 4.736 4.694a1.997 1.997 0 0 0 2.727-.009c1.361-1.278 33.324-31.563 33.324-54.765C84.693 20.563 69.13 5 50 5zm15.992 39.097c.583.824.642 2.078.161 3.44-1.127 3.195-4.742 5.895-7.893 5.895h-4.423l3.693-10.459h5.829c.838-.001 1.975.194 2.633 1.124z"/></svg>