<svg xmlns="http://www.w3.org/2000/svg" width="100" height="100" viewBox="0 0 100 100"><path d="M69.927 33.492a17.286 17.286 0 0 1-5.494 2.101 8.643 8.643 0 0 0-6.319-2.734 8.656 8.656 0 0 0-8.655 8.655c0 .68.077 1.339.223 1.972-7.192-.36-13.569-3.805-17.839-9.043a8.633 8.633 0 0 0-1.171 4.353 8.647 8.647 0 0 0 3.849 7.203 8.61 8.61 0 0 1-3.919-1.083v.109c0 4.193 2.984 7.691 6.942 8.487a8.701 8.701 0 0 1-2.281.305c-.556 0-1.1-.056-1.628-.157a8.666 8.666 0 0 0 8.084 6.012 17.36 17.36 0 0 1-10.75 3.705c-.697 0-1.386-.043-2.063-.121a24.518 24.518 0 0 0 13.269 3.887c15.918 0 24.624-13.186 24.624-24.624 0-.374-.01-.747-.024-1.121a17.592 17.592 0 0 0 4.316-4.479 17.283 17.283 0 0 1-4.971 1.363 8.679 8.679 0 0 0 3.807-4.79z"/><path d="M49.955 5c-12.02.012-23.316 4.705-31.807 13.212S4.988 38.025 5 50.045C5.025 74.833 25.211 95 49.999 95h.046c12.02-.012 23.316-4.705 31.807-13.212S95.012 61.975 95 49.955C94.975 25.167 74.789 5 49.955 5zm29.066 73.962C71.285 86.714 60.993 90.989 50.042 91L50 93v-2C27.415 91 9.023 72.626 9 50.042 8.989 39.09 13.243 28.79 20.979 21.038 28.715 13.286 39.007 9.011 50.001 9 72.585 9 90.977 27.374 91 49.958c.011 10.952-4.243 21.252-11.979 29.004z"/></svg>