<svg xmlns="http://www.w3.org/2000/svg" viewBox="0 0 32 32"><path d="M15 2C6.716 2 0 8.716 0 17s6.716 15 15 15c8.284 0 15-6.716 15-15S23.284 2 15 2zm0 27C8.373 29 3 23.627 3 17S8.373 5 15 5s12 5.373 12 12-5.373 12-12 12z"/><path d="M20.963 20.136a1 1 0 0 0-1.367.362A3.018 3.018 0 0 1 17 22.001h-4a3.004 3.004 0 0 1-2.828-2H15a1 1 0 0 0 0-2h-5v-2h5a1 1 0 0 0 0-2h-4.828a3.004 3.004 0 0 1 2.828-2h4c1.062 0 2.057.576 2.596 1.503a1 1 0 0 0 1.728-1.006 5.025 5.025 0 0 0-4.325-2.497h-4a5.007 5.007 0 0 0-4.899 4H6.999a1 1 0 0 0 0 2h1v2h-1a1 1 0 0 0 0 2H8.1a5.01 5.01 0 0 0 4.899 4h4a5.025 5.025 0 0 0 4.325-2.497.999.999 0 0 0-.362-1.367z"/></svg>